<svg xmlns="http://www.w3.org/2000/svg" viewBox="0 0 130 70" fill="#ffffff">
  <path d="M57.7,32.4c0,2.7-2.2,4.9-5,4.9c-2.7,0-5-2.2-5-4.9s2.2-4.9,5-4.9C55.5,27.5,57.7,29.7,57.7,32.4z M42.3,32.4 c0,2.7-2.2,4.9-5,4.9c-2.7,0-5-2.2-5-4.9s2.2-4.9,5-4.9C40.1,27.5,42.3,29.7,42.3,32.4z M27,32.4c0,2.7-2.2,4.9-5,4.9 c-2.7,0-5-2.2-5-4.9s2.2-4.9,5-4.9C24.8,27.5,27,29.7,27,32.4z M73.2,32.4c0,2.7-2.2,4.9-5,4.9c-2.7,0-5-2.2-5-4.9s2.2-4.9,5-4.9 C70.9,27.5,73.2,29.7,73.2,32.4z M88.6,32.4c0,2.7-2.2,4.9-5,4.9c-2.7,0-5-2.2-5-4.9s2.2-4.9,5-4.9C86.3,27.5,88.6,29.7,88.6,32.4z M103.8,32.4c0,2.7-2.2,4.9-5,4.9c-2.7,0-5-2.2-5-4.9s2.2-4.9,5-4.9C101.6,27.5,103.8,29.7,103.8,32.4z"/>
</svg>
